<svg xmlns="http://www.w3.org/2000/svg" xmlns:xlink="http://www.w3.org/1999/xlink" width="400" height="400" viewBox="0, 0, 400, 400"><g><path d="M92.230 89.141 C -5.317 158.816,0.058 154.523,0.024 162.786 C -0.007 170.131,-5.751 165.625,97.956 239.600 C 205.981 316.656,200.000 315.543,200.000 258.587 L 200.000 224.845 209.766 225.853 C 293.307 234.478,355.853 284.410,373.648 356.684 C 377.975 374.256,386.154 379.834,396.732 372.424 L 400.409 369.849 399.573 342.346 C 395.699 214.821,327.369 123.672,220.820 103.897 C 213.236 102.490,205.449 101.024,203.516 100.639 C 200.001 99.941,200.000 99.927,200.000 66.587 C 200.000 8.697,206.865 7.260,92.230 89.141 " stroke="none" fill="#ffffff" fill-rule="evenodd"></path></g></svg>
